<svg id="Слой_1" data-name="Слой 1" xmlns="http://www.w3.org/2000/svg" width="19" height="19" viewBox="0 0 19 19"><defs><style>.cls-1{fill:#ffb300;}</style></defs><title>clock</title><path class="cls-1" d="M9.5,0A9.5,9.5,0,1,0,19,9.5,9.5,9.5,0,0,0,9.5,0Zm0,18A8.5,8.5,0,1,1,18,9.5,8.5,8.5,0,0,1,9.5,18Z"/><rect class="cls-1" x="9" y="1" width="1" height="2"/><rect class="cls-1" x="9" y="16" width="1" height="2"/><rect class="cls-1" x="16" y="9" width="2" height="1"/><rect class="cls-1" x="1" y="9" width="2" height="1"/><path class="cls-1" d="M13.5,14a0.5,0.5,0,0,1-.35-0.15L9,9.71V5.5a0.5,0.5,0,0,1,1,0V9.29l3.85,3.85A0.5,0.5,0,0,1,13.5,14Z"/></svg>