<svg id="Слой_1" data-name="Слой 1" xmlns="http://www.w3.org/2000/svg" width="24" height="20" viewBox="0 0 24 20"><defs><style>.cls-1{fill:#ffb300;}.cls-2{fill:#fff;}</style></defs><title>cup</title><path class="cls-1" d="M522,376h-3v-1a1,1,0,0,0-1-1H504a1,1,0,0,0-1,1v1h-3a1,1,0,0,0-1,1v3a4.25,4.25,0,0,0,4.14,4c0.37,1.59,1.74,4.62,6.86,5v3h-3a1,1,0,0,0,0,2h8a1,1,0,0,0,0-2h-3v-3c5.11-.36,6.49-3.38,6.86-5a4.25,4.25,0,0,0,4.14-4v-3A1,1,0,0,0,522,376Z" transform="translate(-499 -374)"/><path class="cls-2" d="M519,378h2v2a2.24,2.24,0,0,1-2,2v-4Z" transform="translate(-499 -374)"/><path class="cls-2" d="M503,382a2.24,2.24,0,0,1-2-2v-2h2v4Z" transform="translate(-499 -374)"/><path class="cls-2" d="M511,387c-5.93,0-6-3.84-6-4v-7h12v7C517,383.65,516.6,387,511,387Z" transform="translate(-499 -374)"/></svg>