<svg id="Слой_1" data-name="Слой 1" xmlns="http://www.w3.org/2000/svg" width="116" height="116" viewBox="0 0 116 116"><defs><style>.cls-1{fill:#1e5fb3;}.cls-2{fill:#fff;}.cls-3{fill:#ffb300;}</style></defs><title>gamepad</title><path class="cls-1" d="M571.54,454H560c-6.8,0-10.7-7.6-14.14-14.3-2.49-4.85-5.31-10.7-8.14-10.7H516.28c-3.25,0-6.07,5.89-8.81,11.22C504,447,500.42,454,494,454H482.46A13.41,13.41,0,0,1,469,440.67V391.33A13.41,13.41,0,0,1,482.46,378h89.09A13.41,13.41,0,0,1,585,391.33v49.34A13.41,13.41,0,0,1,571.54,454Z" transform="translate(-469 -338)"/><path class="cls-2" d="M560,452c-5.58,0-9.18-7-12.36-13.21l-0.44-.86c-2.87-5.62-5.59-10.93-9.47-10.93H516.28c-4.3,0-7.15,5.58-10.16,11.48l-0.42.83C502.5,445.55,499.2,452,494,452H482.46A11.41,11.41,0,0,1,471,440.67V391.33A11.41,11.41,0,0,1,482.46,380h89.09A11.41,11.41,0,0,1,583,391.33v49.34A11.41,11.41,0,0,1,571.54,452H560Z" transform="translate(-469 -338)"/><path class="cls-3" d="M496,419a13,13,0,1,1,13-13A13,13,0,0,1,496,419Z" transform="translate(-469 -338)"/><path class="cls-2" d="M496,417a11,11,0,1,1,11-11A11,11,0,0,1,496,417Z" transform="translate(-469 -338)"/><rect class="cls-3" x="88" y="55" width="2" height="10"/><rect class="cls-3" x="88" y="71" width="2" height="10"/><rect class="cls-3" x="92" y="67" width="10" height="2"/><rect class="cls-3" x="76" y="67" width="10" height="2"/><rect class="cls-1" x="57" width="2" height="41"/></svg>