<svg id="Слой_1" data-name="Слой 1" xmlns="http://www.w3.org/2000/svg" width="116" height="94" viewBox="0 0 116 94"><defs><style>.cls-1{fill:#1e5fb3;}.cls-2{fill:#fff;}.cls-3{fill:#ffb300;}</style></defs><title>gear</title><path class="cls-1" d="M541,393V380.91a2.31,2.31,0,0,0-2.26-2.2h-1.17a5.28,5.28,0,0,1-3.74-9l0.83-.82a2.15,2.15,0,0,0,0-3l-8.6-8.6a2.14,2.14,0,0,0-3,0l-0.83.83a5.12,5.12,0,0,1-3.71,1.57,5.33,5.33,0,0,1-3.6-1.46,5.22,5.22,0,0,1-1.6-3.86v-1.17A2.28,2.28,0,0,0,511,351H498.89a2.21,2.21,0,0,0-2.17,2.17v1.49a5.29,5.29,0,0,1-5.3,5.31,5.22,5.22,0,0,1-3.71-1.57l-0.82-.83a2.14,2.14,0,0,0-3,0l-8.6,8.6a2.14,2.14,0,0,0,0,3l0.54,0.54a5.25,5.25,0,0,1-3.74,9h-0.89a2.26,2.26,0,0,0-2.17,2.23v12.14a2.23,2.23,0,0,0,2.17,2.2h1.17a5.28,5.28,0,0,1,3.74,9l-0.83.82a2.13,2.13,0,0,0,0,3l8.69,8.6a2.14,2.14,0,0,0,3,0l0.83-.83a5,5,0,0,1,3.66-1.57,5.29,5.29,0,0,1,5.26,5.31v1.17A2.28,2.28,0,0,0,499,423h12.14a2.21,2.21,0,0,0,2.17-2.17v-0.89a5.29,5.29,0,0,1,5.3-5.31,5.22,5.22,0,0,1,3.71,1.57l0.82,0.83a2.14,2.14,0,0,0,3,0l8.6-8.57a2.16,2.16,0,0,0,0-3l-1.14-1.14a5.27,5.27,0,0,1,3.74-9h1.49A2.31,2.31,0,0,0,541,393h0Z" transform="translate(-469 -351)"/><path class="cls-2" d="M499,421a0.36,0.36,0,0,1-.26-0.19v-1.15a7.29,7.29,0,0,0-7.26-7.31,7,7,0,0,0-5.09,2.18l-0.81.81a0.14,0.14,0,0,1-.1,0,0.15,0.15,0,0,1-.1,0l-8.69-8.61a0.13,0.13,0,0,1,0-.09,0.14,0.14,0,0,1,0-.1l0.82-.81a7.28,7.28,0,0,0-5.15-12.43h-1.17a0.27,0.27,0,0,1-.17-0.2V380.94a0.32,0.32,0,0,1,.18-0.23h0.88a7.25,7.25,0,0,0,5.16-12.39l-0.54-.54a0.14,0.14,0,0,1,0-.1,0.14,0.14,0,0,1,0-.1l8.6-8.6a0.14,0.14,0,0,1,.1,0,0.14,0.14,0,0,1,.1,0l0.82,0.83a7.22,7.22,0,0,0,5.12,2.16,7.32,7.32,0,0,0,7.3-7.31v-1.49a0.22,0.22,0,0,1,.17-0.17H511a0.36,0.36,0,0,1,.26.19v1.15a7.21,7.21,0,0,0,2.23,5.31,7.37,7.37,0,0,0,5,2,7.13,7.13,0,0,0,5.15-2.18l0.81-.81a0.14,0.14,0,0,1,.2,0l8.6,8.6a0.15,0.15,0,0,1,0,.2l-0.82.81a7.28,7.28,0,0,0,5.15,12.43h1.17a0.38,0.38,0,0,1,.26.21V391l0,2a0.44,0.44,0,0,1-.19.29h-1.43a7.27,7.27,0,0,0-5.16,12.41l1.14,1.14a0.16,0.16,0,0,1,0,.2l-8.6,8.57a0.14,0.14,0,0,1-.1,0,0.13,0.13,0,0,1-.1,0l-0.82-.83a7.22,7.22,0,0,0-5.12-2.16,7.32,7.32,0,0,0-7.3,7.31v0.88a0.22,0.22,0,0,1-.17.17H499Z" transform="translate(-469 -351)"/><circle class="cls-3" cx="36" cy="36" r="15"/><path class="cls-2" d="M505,400a13,13,0,1,1,13-13A13,13,0,0,1,505,400Z" transform="translate(-469 -351)"/><path class="cls-1" d="M585,424.17v-8.39a1.6,1.6,0,0,0-1.57-1.53h-0.81A3.67,3.67,0,0,1,580,408l0.58-.57a1.49,1.49,0,0,0,0-2.1l-6-6a1.49,1.49,0,0,0-2.1,0l-0.58.58a3.56,3.56,0,0,1-2.58,1.09,3.7,3.7,0,0,1-2.5-1,3.62,3.62,0,0,1-1.11-2.68v-0.81a1.59,1.59,0,0,0-1.57-1.51h-8.43a1.53,1.53,0,0,0-1.51,1.51v1a3.67,3.67,0,0,1-3.68,3.69,3.63,3.63,0,0,1-2.57-1.09l-0.57-.58a1.48,1.48,0,0,0-2.1,0l-6,6a1.49,1.49,0,0,0,0,2.1l0.38,0.38a3.65,3.65,0,0,1-2.6,6.23h-0.62a1.57,1.57,0,0,0-1.51,1.55v8.43a1.55,1.55,0,0,0,1.51,1.53h0.81a3.67,3.67,0,0,1,2.6,6.26l-0.58.57a1.48,1.48,0,0,0,0,2.1l6,6a1.49,1.49,0,0,0,2.1,0l0.58-.58A3.47,3.47,0,0,1,550.6,439a3.68,3.68,0,0,1,3.65,3.69v0.81a1.59,1.59,0,0,0,1.57,1.51h8.43a1.53,1.53,0,0,0,1.51-1.51v-0.62a3.68,3.68,0,0,1,3.68-3.69,3.63,3.63,0,0,1,2.57,1.09l0.57,0.58a1.48,1.48,0,0,0,2.1,0l6-6a1.5,1.5,0,0,0,0-2.1l-0.79-.79a3.66,3.66,0,0,1,2.6-6.25h1a1.6,1.6,0,0,0,1.49-1.59h0Z" transform="translate(-469 -351)"/><path class="cls-2" d="M556.25,443v-0.32a5.68,5.68,0,0,0-5.65-5.69,5.44,5.44,0,0,0-4,1.7l-0.2.2-5.3-5.25,0.2-.2a5.65,5.65,0,0,0,1.23-6.19,5.56,5.56,0,0,0-5.24-3.5H537v-7.51h0.12a5.65,5.65,0,0,0,4-9.65h0l5.24-5.25,0.21,0.21a5.62,5.62,0,0,0,4,1.68,5.69,5.69,0,0,0,5.68-5.69V397h7.51v0.32a5.62,5.62,0,0,0,1.74,4.13,5.73,5.73,0,0,0,3.87,1.56,5.55,5.55,0,0,0,4-1.7l0.19-.19,5.24,5.24-0.2.2a5.65,5.65,0,0,0-1.23,6.18,5.56,5.56,0,0,0,5.24,3.5H583v5.92l0,1.59h-0.52a5.66,5.66,0,0,0-4,9.66l0.43,0.43-5.24,5.23-0.21-.21a5.62,5.62,0,0,0-4-1.68,5.69,5.69,0,0,0-5.68,5.69V443h-7.51Z" transform="translate(-469 -351)"/><circle class="cls-3" cx="91" cy="69" r="10"/><circle class="cls-2" cx="91" cy="69" r="8"/></svg>