<svg id="Слой_1" data-name="Слой 1" xmlns="http://www.w3.org/2000/svg" width="116" height="130" viewBox="0 0 116 130"><defs><style>.cls-1{fill:#1e5fb3;}.cls-2{fill:#fff;}.cls-3{fill:#ffb300;}</style></defs><title>robot</title><rect class="cls-1" x="46.04" y="42" width="24" height="15"/><rect class="cls-2" x="48.04" y="44" width="20" height="11"/><rect class="cls-1" x="34.04" y="53" width="48" height="52" rx="7" ry="7"/><rect class="cls-2" x="36.04" y="55" width="44" height="48" rx="5" ry="5"/><path class="cls-1" d="M91,20a37.22,37.22,0,0,0-66,0H91Z" transform="translate(0.04)"/><path class="cls-2" d="M28.41,18a35.27,35.27,0,0,1,59.08,0H28.41Z" transform="translate(0.04)"/><circle class="cls-1" cx="26.04" cy="25" r="10"/><circle class="cls-2" cx="26.04" cy="25" r="8"/><circle class="cls-1" cx="90.04" cy="25" r="10"/><circle class="cls-2" cx="90.04" cy="25" r="8"/><rect class="cls-1" x="25.04" y="6" width="66" height="40" rx="7" ry="7"/><rect class="cls-2" x="27.04" y="8" width="62" height="36" rx="5" ry="5"/><circle class="cls-3" cx="42.04" cy="25" r="10"/><circle class="cls-2" cx="42.04" cy="25" r="8"/><circle class="cls-3" cx="42.04" cy="25" r="6"/><circle class="cls-2" cx="42.04" cy="25" r="4"/><circle class="cls-3" cx="58.04" cy="63" r="5"/><circle class="cls-2" cx="58.04" cy="63" r="3"/><circle class="cls-3" cx="58.04" cy="77" r="6"/><circle class="cls-2" cx="58.04" cy="77" r="4"/><circle class="cls-3" cx="74.04" cy="25" r="10"/><circle class="cls-2" cx="74.04" cy="25" r="8"/><circle class="cls-3" cx="74.04" cy="25" r="6"/><circle class="cls-2" cx="74.04" cy="25" r="4"/><rect class="cls-3" x="52.04" y="36" width="12" height="2"/><rect class="cls-1" x="36.04" y="63" width="7" height="2"/><rect class="cls-1" x="35.04" y="68" width="5" height="2"/><rect class="cls-1" x="73.04" y="88" width="8" height="2"/><rect class="cls-1" x="66.04" y="93" width="15" height="2"/><rect class="cls-1" x="40.04" y="103" width="16" height="7" rx="3" ry="3"/><rect class="cls-2" x="42.04" y="105" width="12" height="3" rx="1" ry="1"/><rect class="cls-1" x="40.04" y="108" width="16" height="7" rx="3" ry="3"/><rect class="cls-2" x="42.04" y="110" width="12" height="3" rx="1" ry="1"/><rect class="cls-1" x="40.04" y="113" width="16" height="7" rx="3" ry="3"/><rect class="cls-2" x="42.04" y="115" width="12" height="3" rx="1" ry="1"/><rect class="cls-1" x="40.04" y="118" width="16" height="7" rx="3" ry="3"/><rect class="cls-2" x="42.04" y="120" width="12" height="3" rx="1" ry="1"/><rect class="cls-1" x="28.04" y="123" width="28" height="7" rx="3" ry="3"/><rect class="cls-2" x="30.04" y="125" width="24" height="3" rx="1" ry="1"/><rect class="cls-1" x="60.04" y="103" width="16" height="7" rx="3" ry="3"/><rect class="cls-2" x="62.04" y="105" width="12" height="3" rx="1" ry="1"/><rect class="cls-1" x="60.04" y="108" width="16" height="7" rx="3" ry="3"/><rect class="cls-2" x="62.04" y="110" width="12" height="3" rx="1" ry="1"/><rect class="cls-1" x="60.04" y="113" width="16" height="7" rx="3" ry="3"/><rect class="cls-2" x="62.04" y="115" width="12" height="3" rx="1" ry="1"/><rect class="cls-1" x="60.04" y="118" width="16" height="7" rx="3" ry="3"/><rect class="cls-2" x="62.04" y="120" width="12" height="3" rx="1" ry="1"/><rect class="cls-1" x="60.04" y="123" width="28" height="7" rx="3" ry="3"/><rect class="cls-2" x="62.04" y="125" width="24" height="3" rx="1" ry="1"/><path class="cls-1" d="M92,53H68v2H92a10,10,0,0,1,10,10V94h2V65A12,12,0,0,0,92,53Z" transform="translate(0.04)"/><path class="cls-1" d="M24,53H48v2H24A10,10,0,0,0,14,65V94H12V65A12,12,0,0,1,24,53Z" transform="translate(0.04)"/><path class="cls-1" d="M7.09,108a6,6,0,1,1,11.82,0h7c0-.33,0-0.66,0-1a13,13,0,0,0-26,0,6.64,6.64,0,0,0,0,1H7.09Z" transform="translate(0.04)"/><path class="cls-2" d="M20.94,106a8,8,0,0,0-15.88,0h-3A11,11,0,0,1,24,106H20.94Z" transform="translate(0.04)"/><path class="cls-1" d="M97.09,108a6,6,0,1,1,11.82,0h7c0-.33,0-0.66,0-1a13,13,0,0,0-26,0,6.64,6.64,0,0,0,0,1h7.08Z" transform="translate(0.04)"/><path class="cls-2" d="M110.94,106a8,8,0,0,0-15.87,0h-3A11,11,0,0,1,114,106h-3.06Z" transform="translate(0.04)"/></svg>